Coordinates
version=1
nRows=13
nColumns=40
inDegrees=yes

Units are S.I. units (second, meters, Newtons, ...)
If the header above contains a line with 'inDegrees', this indicates whether rotational values are in degrees (yes) or radians (no).

endheader
time	pelvis_tilt	pelvis_list	pelvis_rotation	pelvis_tx	pelvis_ty	pelvis_tz	hip_flexion_r	hip_adduction_r	hip_rotation_r	knee_angle_r	knee_angle_r_beta	ankle_angle_r	subtalar_angle_r	mtp_angle_r	hip_flexion_l	hip_adduction_l	hip_rotation_l	knee_angle_l	knee_angle_l_beta	ankle_angle_l	subtalar_angle_l	mtp_angle_l	lumbar_extension	lumbar_bending	lumbar_rotation	arm_flex_r	arm_add_r	arm_rot_r	elbow_flex_r	pro_sup_r	wrist_flex_r	wrist_dev_r	arm_flex_l	arm_add_l	arm_rot_l	elbow_flex_l	pro_sup_l	wrist_flex_l	wrist_dev_l
      0.00000000	    -23.44303902	     -0.27424984	     12.48586785	      0.08928675	      1.28306367	     -0.01972779	     62.26900753	    -14.68616122	     -5.96994239	     47.25269322	      0.82471508	     -1.54925775	    -16.46945048	      0.00000000	     69.71316938	     -2.46657267	      3.45848334	     96.20221358	      1.67904537	     -1.69651912	    -16.38649610	      0.00000000	    -46.31136074	      2.64037591	      0.80143708	     55.52488268	     14.98693079	    -34.92727181	     58.23019735	      0.74803059	      0.00000000	      0.00000000	     56.66826419	      5.90350428	     -9.53994891	     39.99318682	      2.29050350	      0.00000000	      0.00000000
      0.01700000	    -23.51348073	      0.03147437	     13.29831477	      0.08851627	      1.28335290	     -0.02036252	     59.18307933	    -15.58875427	     -7.36121160	     43.79508871	      0.76436849	     -5.84917035	    -15.94765710	      0.00000000	     72.08349408	     -1.60014425	      3.68471483	     99.11745442	      1.72992593	      0.22078556	    -16.39733140	      0.00000000	    -46.28951078	      2.71041165	      0.13434695	     55.26326691	     14.90870646	    -35.36553269	     58.52118253	      0.76110560	      0.00000000	      0.00000000	     56.65287416	      5.81237186	     -8.58388756	     39.96707915	      2.14340918	      0.00000000	      0.00000000
      0.03300000	    -23.54218048	      0.29588020	     14.15908219	      0.08775480	      1.28346866	     -0.02100309	     55.99313072	    -16.47269979	     -9.11127846	     40.18222807	      0.70131218	    -10.54375867	    -15.27377357	      0.00000000	     74.46462325	     -0.74669327	      3.89997164	    101.99712578	      1.78018567	      2.10310665	    -16.35211974	      0.00000000	    -46.28705456	      2.84637346	     -0.52273512	     54.96787608	     14.77804205	    -35.68520875	     58.79383675	      0.76322920	      0.00000000	      0.00000000	     56.65620239	      5.79292589	     -7.77592442	     39.91059152	      2.10782120	      0.00000000	      0.00000000
      0.05000000	    -23.59119965	      0.51046124	     14.83682215	      0.08736121	      1.28336553	     -0.02154170	     53.18892030	    -17.15932384	    -10.68395246	     37.56769410	      0.65567995	    -14.37160712	    -14.52276296	      0.00000000	     76.68424398	     -0.10632453	      3.97984366	    104.03742625	      1.81579563	      4.30338832	    -16.12828572	      0.00000000	    -46.23504334	      2.96277700	     -1.04727630	     54.69415205	     14.63057782	    -35.98235775	     58.99970597	      0.75827377	      0.00000000	      0.00000000	     56.66122071	      5.74766408	     -7.03403960	     39.76228925	      2.07094240	      0.00000000	      0.00000000
      0.06700000	    -23.94147575	      0.85787212	     15.02607385	      0.08703276	      1.28284865	     -0.02142041	     51.24618239	    -17.63029927	    -11.59446209	     36.38520323	      0.63504160	    -16.62190465	    -13.90086029	      0.00000000	     79.00372758	      0.09897197	      3.47748767	    105.04426461	      1.83336828	      6.77861859	    -16.52923530	      0.00000000	    -45.95979722	      2.64882739	     -1.44551033	     54.53773985	     14.53059588	    -36.26841102	     59.10958704	      0.72611057	      0.00000000	      0.00000000	     56.69710542	      5.74215408	     -6.61667586	     39.63136657	      2.32323719	      0.00000000	      0.00000000
      0.08300000	    -23.95176699	      0.78846099	     15.39009999	      0.08711102	      1.28271625	     -0.02160654	     49.25987098	    -18.04071015	    -13.14520745	     36.29917591	      0.63354014	    -18.78441786	    -13.52466705	      0.00000000	     80.96400610	      0.34670262	      3.62896240	    105.29133828	      1.83768053	      9.71008876	    -15.74290985	      0.00000000	    -45.93668533	      2.93850053	     -1.59916534	     54.42834654	     14.24391194	    -36.22804597	     59.17871775	      0.74859971	      0.00000000	      0.00000000	     56.88969446	      5.57709069	     -5.59264721	     39.26181348	      2.10158653	      0.00000000	      0.00000000
      0.10000000	    -24.01383812	      0.86391024	     15.32390946	      0.08741258	      1.28233531	     -0.02139012	     47.98841731	    -18.16914662	    -13.50636882	     37.24433877	      0.65003634	    -19.30363366	    -13.48934734	      0.00000000	     82.50107244	      0.16536666	      3.29623758	    104.52065661	      1.82422959	     11.86285188	    -16.00813980	      0.00000000	    -45.91369430	      2.82468589	     -1.62331556	     54.44715815	     14.13962123	    -36.37326600	     59.13792056	      0.71156471	      0.00000000	      0.00000000	     56.92868022	      5.56508320	     -5.37325607	     39.17411238	      2.30751998	      0.00000000	      0.00000000
      0.11700000	    -24.10073803	      1.02905941	     15.44808738	      0.08783387	      1.28203299	     -0.02138577	     47.24972721	    -18.41506652	    -13.10674827	     39.08485441	      0.68215940	    -18.79495192	    -14.52506948	      0.00000000	     83.46245803	      0.09507281	      2.98791960	    102.34124752	      1.78619173	     13.88826479	    -14.94134455	      0.00000000	    -45.91640767	      2.76402657	     -1.80630544	     54.37294056	     14.00806700	    -36.20652714	     59.21912798	      0.75640745	      0.00000000	      0.00000000	     57.01758385	      5.40746349	     -4.81785227	     39.06042899	      1.99478433	      0.00000000	      0.00000000
      0.13300000	    -24.08123316	      1.10681665	     15.41202579	      0.08845951	      1.28182111	     -0.02131547	     46.94951701	    -18.42783407	    -12.05030111	     41.88264883	      0.73099012	    -17.18560632	    -15.77754390	      0.00000000	     83.91018142	     -0.16282743	      2.63467298	     99.13785821	      1.73028204	     14.74999559	    -14.63329534	      0.00000000	    -46.02983476	      2.71329711	     -1.83571418	     54.43052548	     13.92401579	    -36.02569236	     59.17098388	      0.75157404	      0.00000000	      0.00000000	     57.05601185	      5.35951548	     -4.83141773	     39.05547529	      2.03213671	      0.00000000	      0.00000000
      0.15000000	    -23.90973544	      1.08161967	     15.20040142	      0.08909977	      1.28189387	     -0.02121168	     47.22874491	    -18.24443748	    -10.55917317	     45.68155114	      0.79729347	    -15.34906740	    -17.12607213	      0.00000000	     83.64992332	     -0.51826197	      2.45298581	     95.30459676	      1.66337901	     14.86710150	    -14.27942307	      0.00000000	    -46.27076725	      2.71840805	     -1.67329583	     54.58428128	     13.86628464	    -35.81691417	     59.08638826	      0.76442782	      0.00000000	      0.00000000	     57.07000642	      5.30775901	     -4.98459112	     39.14018447	      2.15916169	      0.00000000	      0.00000000
      0.16700000	    -23.83320483	      1.10671357	     14.67548506	      0.08953800	      1.28197124	     -0.02085547	     48.55459520	    -17.80897010	     -8.12876806	     50.63515777	      0.88375022	    -13.73429742	    -18.68181637	      0.00000000	     82.83469179	     -1.02961528	      2.25466585	     90.81553894	      1.58503017	     14.19017493	    -13.81106428	      0.00000000	    -46.44065206	      2.46617144	     -1.37264463	     54.74546016	     13.83373505	    -35.68911092	     59.03164528	      0.76072609	      0.00000000	      0.00000000	     57.10315691	      5.30601968	     -5.15355151	     39.27335789	      2.12083207	      0.00000000	      0.00000000
      0.18300000	    -23.66096548	      0.90408925	     13.90844378	      0.08996968	      1.28205277	     -0.02020620	     50.46113156	    -16.90876059	     -5.44674694	     56.42249897	      0.98475838	    -12.28709251	    -20.04909670	      0.00000000	     81.44125646	     -1.76816436	      2.28846892	     85.70290532	      1.49579788	     12.63204327	    -13.48581871	      0.00000000	    -46.63600545	      2.28307910	     -0.72781988	     54.97029770	     13.81103425	    -35.57217595	     58.94036941	      0.76232596	      0.00000000	      0.00000000	     57.11303056	      5.33095854	     -5.37697005	     39.46967891	      2.00622417	      0.00000000	      0.00000000
      0.20000000	    -23.28148995	      0.60654971	     13.04849262	      0.09041213	      1.28262098	     -0.01938746	     52.52341901	    -15.82618586	     -2.99469776	     62.54130170	      1.09155163	    -10.93372519	    -20.92781762	      0.00000000	     79.27522163	     -2.54148030	      2.44872539	     80.25333988	      1.40068502	     10.75722610	    -13.20615403	      0.00000000	    -46.99497386	      2.17679018	      0.03099909	     55.25162805	     13.83026691	    -35.36268743	     58.75885435	      0.76437684	      0.00000000	      0.00000000	     57.10241081	      5.39133229	     -5.94407950	     39.61461591	      1.96470900	      0.00000000	      0.00000000
